HIERARCHY
ROOT root
{
	OFFSET	0	13.1	24.9
	CHANNELS 6  Xposition Yposition Zposition Xrotation Yrotation Zrotation
	JOINT spine_1
	{
		OFFSET	0	9.99999	0
		CHANNELS 3  Xrotation Yrotation Zrotation
		JOINT spine_2
		{
			OFFSET	0	112	-10
			CHANNELS 3  Xrotation Yrotation Zrotation
			JOINT spine_3
			{
				OFFSET	0	206.5	19.3
				CHANNELS 3  Xrotation Yrotation Zrotation
				JOINT spine_4
				{
					OFFSET	0	110.4	14.6
					CHANNELS 3  Xrotation Yrotation Zrotation
					JOINT neck_1
					{
						OFFSET	0	71.8	-50.3
						CHANNELS 3  Xrotation Yrotation Zrotation
						JOINT neck_2
						{
							OFFSET	0	86.2	-25.8
							CHANNELS 3  Xrotation Yrotation Zrotation
							JOINT head_ee
							{
								OFFSET	0	179.8	-8.7
								CHANNELS 3  Xrotation Yrotation Zrotation
								End Site
								{
									OFFSET	1	0	0
								}
							}
						}
					}
					JOINT left_clavicle
					{
						OFFSET	-43.2	22.4	-70.8
						CHANNELS 3  Xrotation Yrotation Zrotation
						JOINT left_shoulder
						{
							OFFSET	-93.9	-5.79999	48.7
							CHANNELS 3  Xrotation Yrotation Zrotation
							JOINT left_elbow
							{
								OFFSET	-291.4	-30.8	15.2
								CHANNELS 3  Xrotation Yrotation Zrotation
								JOINT left_lowarm_twist
								{
									OFFSET	-110.7	-3.89999	13.6
									CHANNELS 3  Xrotation Yrotation Zrotation
									JOINT left_hand
									{
										OFFSET	-110.7	-3.89999	13.6
										CHANNELS 3  Xrotation Yrotation Zrotation
										JOINT left_ee
										{
											OFFSET	-80.8	-5.10001	12.1
											CHANNELS 3  Xrotation Yrotation Zrotation
											End Site
											{
												OFFSET	1	0	0
											}
										}
									}
								}
							}
						}
					}
					JOINT right_clavicle
					{
						OFFSET	43.2	22.4	-70.8
						CHANNELS 3  Xrotation Yrotation Zrotation
						JOINT right_shoulder
						{
							OFFSET	93.9	-5.79999	48.7
							CHANNELS 3  Xrotation Yrotation Zrotation
							JOINT right_elbow
							{
								OFFSET	291.4	-30.8	15.2
								CHANNELS 3  Xrotation Yrotation Zrotation
								JOINT right_lowarm_twist
								{
									OFFSET	110.7	-3.89999	13.6
									CHANNELS 3  Xrotation Yrotation Zrotation
									JOINT right_hand
									{
										OFFSET	110.7	-3.89999	13.6
										CHANNELS 3  Xrotation Yrotation Zrotation
										JOINT right_ee
										{
											OFFSET	80.8	-5.10001	12.1
											CHANNELS 3  Xrotation Yrotation Zrotation
											End Site
											{
												OFFSET	1	0	0
											}
										}
									}
								}
							}
						}
					}
				}
			}
		}
	}
	JOINT left_hip
	{
		OFFSET	-82.8	-127.5	0.300001
		CHANNELS 3  Xrotation Yrotation Zrotation
		JOINT left_knee
		{
			OFFSET	-28.2	-396.7	2.2
			CHANNELS 3  Xrotation Yrotation Zrotation
			JOINT left_ankle
			{
				OFFSET	-11.7	-411.3	35.4
				CHANNELS 3  Xrotation Yrotation Zrotation
				JOINT left_toes
				{
					OFFSET	0	-60	-88.6
					CHANNELS 3  Xrotation Yrotation Zrotation
					JOINT left_foot_ee
					{
						OFFSET	-22.5	-16.5	-42.2
						CHANNELS 3  Xrotation Yrotation Zrotation
						End Site
						{
							OFFSET	1	0	0
						}
					}
				}
			}
		}
	}
	JOINT right_hip
	{
		OFFSET	82.8	-127.5	0.300001
		CHANNELS 3  Xrotation Yrotation Zrotation
		JOINT right_knee
		{
			OFFSET	28.2	-396.7	2.2
			CHANNELS 3  Xrotation Yrotation Zrotation
			JOINT right_ankle
			{
				OFFSET	11.7	-411.3	35.4
				CHANNELS 3  Xrotation Yrotation Zrotation
				JOINT right_toes
				{
					OFFSET	0	-60	-88.6
					CHANNELS 3  Xrotation Yrotation Zrotation
					JOINT right_foot_ee
					{
						OFFSET	22.5	-16.5	-42.2
						CHANNELS 3  Xrotation Yrotation Zrotation
						End Site
						{
							OFFSET	1	0	0
						}
					}
				}
			}
		}
	}
}
MOTION
Frames: 14
Frame Time: 0.02
2324.62 703.318 -1491.57 -0.900657 50.087 -3.89654 0.76109 0.295657 0.92579 0.761535 0.23615 0.942725 0.765627 0.0457288 0.970774 0.764367 0.198464 0.951372 -27.7503 19.7046 11.278 -30.4056 33.6283 22.3958 -0.0 0.0 -0.0 2.80145 22.8607 6.54141 -13.0432 -10.3244 49.2566 3.68389 -61.2622 2.18183 -59.5271 -5.224 5.08621 -1.5027 8.10446 -6.36768 -0.0 0.0 -0.0 11.06 10.6548 -22.1661 -24.7088 22.5189 -62.6981 0.463987 12.9446 -0.0526376 85.9698 4.54301 8.90986 -9.416 -30.7838 42.2947 0.0 0.0 0.0 -21.596 27.6516 12.7441 -15.4507 0.322074 2.34204 21.2307 3.29846 -2.88813 -14.2563 0.0 0.0 -0.0 0.0 -0.0 21.7104 19.9306 -5.10824 1.68089 0.0728586 0.247633 3.42827 29.105 0.625668 -8.8123 0.0 0.0 0.0 0.0 0.0 
2315.42 704.207 -1490.91 -0.620824 48.7689 -3.98364 0.809556 0.148606 0.894532 0.809997 0.0913858 0.902175 0.811577 -0.0874993 0.90256 0.810444 0.0561353 0.905052 -26.3494 20.0513 9.65868 -29.1133 34.7295 20.6579 -0.0 0.0 -0.0 3.23967 23.4513 7.16317 -14.4536 -10.3064 49.9342 3.20924 -57.8163 1.77251 -59.2602 -5.19089 5.07755 -1.37249 9.48907 -4.88761 -0.0 0.0 -0.0 11.3469 11.6286 -22.7973 -24.8491 24.4038 -62.3966 0.521141 14.4755 -0.0661847 84.7104 4.39188 8.85269 -9.2643 -30.6302 41.3355 0.0 0.0 0.0 -19.8533 27.4479 11.9979 -20.5594 0.288569 3.12491 26.0011 4.74593 -3.44758 -12.4278 0.0 0.0 -0.0 0.0 -0.0 20.9407 19.3927 -4.54426 0.237802 0.00986516 0.0351591 6.24854 29.6388 1.13685 -8.40267 0.0 0.0 0.0 0.0 0.0 
2299.66 705.786 -1496.63 -1.4628 48.1713 -3.24646 0.858071 -0.151958 1.02914 0.858634 -0.217133 1.01739 0.854818 -0.411957 0.955263 0.853636 -0.255929 1.00833 -24.4183 20.4515 7.42376 -27.2687 36.1978 18.1962 -0.0 0.0 -0.0 3.77101 23.6321 7.89911 -15.8208 -10.3336 50.3967 2.68167 -53.0192 1.33778 -58.8779 -5.14354 5.06488 -1.18695 11.4727 -2.80148 -0.0 0.0 -0.0 11.549 13.0842 -23.2266 -25.4844 26.9315 -61.3561 0.600169 16.5577 -0.0873295 82.8283 4.16842 8.76109 -9.04296 -30.4061 39.9619 0.0 0.0 0.0 -17.5955 27.2396 11.1215 -27.8475 0.120473 4.22996 32.8712 6.74284 -4.18768 -9.81181 0.0 0.0 -0.0 0.0 -0.0 20.3092 18.6072 -4.37226 -1.85116 -0.0717819 -0.275008 10.2621 30.431 1.8562 -7.81557 0.0 0.0 0.0 0.0 0.0 
2286.69 704.606 -1505.03 -1.08737 47.5765 -3.43988 0.863268 -0.232451 1.1239 0.86392 -0.303492 1.10683 0.858069 -0.514105 1.02611 0.856766 -0.345609 1.09441 -24.1072 20.1662 5.93739 -26.9848 36.2452 16.5911 -0.0 0.0 -0.0 3.97473 23.592 8.18128 -17.7417 -10.1744 50.6297 2.13158 -46.5523 0.917039 -58.0376 -5.03976 5.0359 -0.811091 11.132 -0.563292 -0.0 0.0 -0.0 11.7751 15.7068 -23.6579 -24.4738 28.3231 -61.9266 0.704519 19.2389 -0.119408 81.8724 4.05611 8.71177 -9.04134 -30.3995 39.9587 0.0 0.0 0.0 -15.3613 25.3406 10.2661 -28.9267 0.0836758 4.39149 35.4213 9.15518 -4.44802 -9.56829 0.0 0.0 -0.0 0.0 -0.0 19.8861 18.4216 -4.84896 -4.74496 -0.166076 -0.709065 12.7125 30.2341 2.26745 -7.50652 0.0 0.0 0.0 0.0 0.0 
2281.04 703.114 -1507.37 -1.27295 48.0515 -2.66345 0.894858 -0.184853 1.1218 0.895522 -0.255858 1.10777 0.890607 -0.466978 1.03661 0.889231 -0.297415 1.09734 -23.7174 19.7052 5.58085 -26.3925 35.4901 15.793 -0.0 0.0 -0.0 4.12163 23.52 8.38583 -18.5671 -9.98654 51.157 1.96581 -44.2348 0.798995 -57.7812 -5.00817 5.02676 -0.542787 10.7217 0.969183 -0.0 0.0 -0.0 11.8283 17.3517 -23.7034 -23.3764 29.1404 -62.3683 0.73969 20.1239 -0.131254 81.6113 4.02557 8.69797 -9.00717 -30.3921 39.7122 0.0 0.0 0.0 -13.7698 22.7816 8.5361 -30.9769 0.00541036 4.69638 37.1928 10.4099 -4.62456 -9.22012 0.0 0.0 -0.0 0.0 -0.0 19.697 18.4207 -4.81707 -6.46862 -0.211775 -0.969629 14.3803 30.5257 2.5541 -6.99949 0.0 0.0 0.0 0.0 0.0 
2271.21 693.933 -1512.38 -1.86242 48.6375 -2.03508 1.04123 0.0353163 1.19358 1.04203 -0.0407001 1.1934 1.0413 -0.26956 1.16328 1.03943 -0.0824726 1.19125 -23.2862 19.0421 5.18836 -25.7001 34.3622 14.8268 -0.0 0.0 -0.0 4.38706 23.2351 8.76042 -19.249 -9.91565 51.7284 1.79137 -41.5818 0.680201 -57.4153 -4.96317 5.01347 -0.188028 10.1481 2.99695 -0.0 0.0 -0.0 11.9302 19.8083 -23.7874 -21.7607 30.1803 -62.6847 0.790649 21.3884 -0.149314 81.3461 3.99462 8.68382 -8.97315 -30.4349 39.4001 0.0 0.0 0.0 -12.2108 19.1413 5.43095 -33.9074 -0.125319 5.12699 39.757 12.3199 -4.87618 -8.72535 0.0 0.0 -0.0 0.0 -0.0 19.5048 18.4474 -4.71297 -7.97019 -0.245178 -1.19763 16.5584 31.0836 2.93015 -6.32248 0.0 0.0 0.0 0.0 0.0 
2268.41 705.072 -1512.06 -2.18299 49.8563 -1.84292 1.04984 0.333253 1.1952 1.0506 0.25653 1.21398 1.05629 0.0185478 1.24064 1.0542 0.214237 1.22215 -22.6333 18.6491 5.04324 -24.8258 33.629 14.1868 -0.0 0.0 -0.0 4.58988 23.9652 9.02616 -20.0081 -9.88084 52.6603 1.7719 -41.2711 0.667314 -57.4383 -4.96599 5.01431 0.00646511 9.41297 3.94589 -0.0 0.0 -0.0 12.0939 22.125 -23.9826 -20.925 30.4661 -62.7837 0.797067 21.5462 -0.151663 81.308 3.99018 8.68177 -8.93634 -30.5032 39.0353 0.0 0.0 0.0 -9.94021 16.6177 3.45424 -34.1608 -0.13766 5.16391 39.7656 12.3603 -4.87739 -8.72955 0.0 0.0 -0.0 0.0 -0.0 19.3124 18.4221 -4.70511 -8.19993 -0.249762 -1.23259 16.6919 31.4429 2.96643 -6.2645 0.0 0.0 0.0 0.0 0.0 
2257.49 705.248 -1522.38 -1.49984 49.7551 -1.94431 1.06565 0.285156 1.07336 1.06627 0.216282 1.08933 1.07058 0.00326494 1.11058 1.0689 0.178609 1.09613 -26.687 19.2277 6.69281 -29.5981 34.2943 17.6506 -0.0 0.0 -0.0 3.9926 24.2451 8.20034 -22.486 -10.0827 54.2591 1.60675 -38.5147 0.561366 -56.2953 -4.82595 4.97099 0.00771547 8.58364 3.61627 -0.0 0.0 -0.0 12.204 22.5102 -24.2017 -18.5496 30.7857 -63.279 0.805239 21.7465 -0.154677 81.8997 4.05931 8.71321 -8.84124 -30.3746 38.5065 0.0 0.0 0.0 -9.444 18.9021 2.34703 -37.1275 -0.294205 5.59193 37.9575 8.78956 -4.68558 -9.10963 0.0 0.0 -0.0 0.0 -0.0 17.7552 18.4881 -4.4489 -8.77343 -0.26059 -1.31992 17.1561 31.522 3.04459 -6.86764 0.0 0.0 0.0 0.0 0.0 
2243.6 710.398 -1527.53 -1.16769 50.2261 -2.47446 1.13167 0.342986 1.13455 1.13235 0.270102 1.15408 1.13801 0.0450672 1.1844 1.13613 0.231543 1.16242 -28.3334 19.5196 6.20513 -31.7398 35.0699 18.1588 -0.0 0.0 -0.0 4.36353 24.5091 8.70254 -24.1473 -9.46118 55.1766 1.41131 -34.9562 0.444412 -55.2821 -4.70254 4.93025 -0.0351379 9.65647 3.77715 -0.0 0.0 -0.0 12.464 22.6626 -24.7866 -16.8965 30.4246 -63.592 0.799189 21.5982 -0.152443 83.5877 4.25823 8.79893 -7.85346 -29.8791 32.2349 0.0 0.0 0.0 -2.5233 24.4509 -4.58426 -48.0747 -1.05866 7.08925 35.7263 5.16987 -4.46847 -9.19007 0.0 0.0 -0.0 0.0 -0.0 15.337 18.1587 -3.15272 -8.45874 -0.254756 -1.27199 19.3417 31.6447 3.3962 -9.39788 0.0 0.0 0.0 0.0 0.0 
2236.23 712.884 -1531.97 -0.493948 50.6054 -3.09917 1.13191 0.417536 1.2409 1.1327 0.337735 1.26495 1.14044 0.0903885 1.30613 1.13818 0.295516 1.27547 -29.8247 19.4107 7.18516 -33.3344 34.5579 19.5555 -0.0 0.0 -0.0 4.30712 24.5704 8.62447 -25.5329 -9.02073 56.084 1.27497 -32.2743 0.368911 -55.3075 -4.70562 4.9313 -0.0395426 9.29936 3.60322 -0.0 0.0 -0.0 12.5184 22.2339 -24.9506 -15.8028 29.7908 -63.5339 0.796693 21.537 -0.151525 83.0786 4.19797 8.7737 -8.17319 -30.0347 34.2095 0.0 0.0 0.0 1.91083 21.9217 -7.41782 -54.9868 -1.68366 7.95046 37.2694 8.31587 -4.61982 -9.32139 0.0 0.0 -0.0 0.0 -0.0 13.9581 17.9772 -2.90162 -9.72536 -0.276632 -1.46511 23.0203 31.9564 3.96995 -8.53919 0.0 0.0 0.0 0.0 0.0 
2230.62 711.534 -1537.32 0.682434 52.3602 -3.82827 1.07985 0.186373 1.18544 1.08062 0.110568 1.19489 1.08311 -0.120502 1.19393 1.08113 0.069556 1.19798 -29.2337 19.162 6.80922 -32.5678 34.2048 18.7687 -0.0 0.0 -0.0 3.99745 23.392 8.21434 -26.8013 -7.83967 58.3462 1.21755 -31.0945 0.338749 -54.9301 -4.65982 4.91559 -0.0523382 10.75 4.11126 -0.0 0.0 -0.0 12.5282 21.5245 -25.0337 -15.0832 28.6585 -63.4676 0.913956 24.3582 -0.197259 83.4456 4.24138 8.79194 -7.73718 -29.8255 31.5259 0.0 0.0 0.0 5.37212 24.3457 -11.8452 -59.2726 -2.12196 8.44482 36.1899 6.09159 -4.51281 -10.0662 0.0 0.0 -0.0 0.0 -0.0 12.6381 17.4095 -2.78176 -10.5626 -0.288745 -1.59301 22.1836 31.3926 3.81597 -10.0284 0.0 0.0 0.0 0.0 0.0 
2223.93 710.307 -1540.07 0.269078 53.9151 -3.21828 1.09947 0.239583 1.11278 1.10014 0.168293 1.12577 1.10363 -0.0501783 1.13717 1.10185 0.130035 1.13083 -28.7084 18.8877 6.70041 -31.8409 33.7147 18.2311 -0.0 0.0 -0.0 3.74416 22.0437 7.86016 -27.1416 -7.59505 60.8286 1.10403 -28.6735 0.282176 -55.4228 -4.71962 4.93604 0.22036 11.9351 6.32486 -0.0 0.0 -0.0 12.673 21.8005 -25.3454 -13.7755 25.4057 -62.233 0.997802 26.3018 -0.233136 84.3562 4.3496 8.83601 -6.82837 -29.475 26.1105 0.0 0.0 0.0 8.30638 28.4933 -14.4732 -57.2397 -1.90941 8.21437 35.1214 1.94028 -4.41894 -10.3626 0.0 0.0 -0.0 0.0 -0.0 12.5623 17.2202 -2.89105 -10.247 -0.284399 -1.54479 24.6082 31.316 4.16372 -12.0041 0.0 0.0 0.0 0.0 0.0 
2216.53 709.005 -1543.36 0.825052 55.0584 -3.599 1.08991 0.333649 1.12011 1.09057 0.261702 1.13907 1.09599 0.0388247 1.1681 1.09416 0.222804 1.14731 -28.6547 18.5894 6.51615 -31.6739 33.2128 17.8101 -0.0 0.0 -0.0 3.80633 21.1959 7.94702 -28.3515 -6.65616 61.7428 1.09018 -28.3702 0.275564 -55.7316 -4.7572 4.94859 0.270869 13.1486 7.11952 -0.0 0.0 -0.0 12.7877 21.2872 -25.6537 -12.7531 23.0158 -62.0864 1.11825 28.9833 -0.289034 84.8273 4.40586 8.85814 -6.52921 -29.3406 24.4099 0.0 0.0 0.0 10.8622 30.3867 -16.402 -57.9099 -1.97857 8.29116 33.7584 -1.13299 -4.30684 -11.2519 0.0 0.0 -0.0 0.0 -0.0 11.6731 16.7056 -2.63822 -11.2735 -0.297562 -1.70173 26.1379 30.5809 4.33514 -13.478 0.0 0.0 0.0 0.0 0.0 
2210.96 711.281 -1545.95 0.461122 56.6211 -2.35785 0.929925 0.266603 1.03289 0.930497 0.200341 1.04776 0.934364 -0.00694313 1.06671 0.932812 0.161602 1.05443 -28.686 18.378 6.45633 -31.6297 32.8344 17.6028 -0.0 0.0 -0.0 3.72102 20.4868 7.81841 -28.3749 -6.45254 63.084 1.05357 -27.5597 0.258396 -55.9417 -4.7828 4.95702 0.349755 14.4361 8.1124 -0.0 0.0 -0.0 12.8045 20.5069 -25.7539 -11.8313 21.1196 -61.4162 1.24655 31.6941 -0.353856 85.4197 4.47685 8.8853 -5.8613 -29.0608 20.6796 0.0 0.0 0.0 14.6759 32.2209 -19.6811 -55.0977 -1.69452 7.96364 32.4349 -3.22446 -4.19509 -11.9504 0.0 0.0 -0.0 0.0 -0.0 11.3634 16.7281 -3.58432 -10.4629 -0.287401 -1.57777 27.2261 30.0002 4.44876 -14.8341 0.0 0.0 0.0 0.0 0.0 
